<svg width="24" height="24" viewBox="0 0 24 24" fill="none" xmlns="http://www.w3.org/2000/svg">
<mask id="mask0_7_169" style="mask-type:alpha" maskUnits="userSpaceOnUse" x="0" y="0" width="24" height="24">
<rect width="24" height="24" transform="matrix(-1 0 0 1 24 0)" fill="#D9D9D9"/>
</mask>
<g mask="url(#mask0_7_169)">
<path d="M9.23076 21.5095C11.2064 20.7223 12.7837 19.4617 13.9625 17.7277C15.1413 15.9939 15.7308 14.0642 15.7308 11.9385C15.7308 10.3833 15.3971 8.91533 14.7298 7.5345C14.0624 6.15383 13.1275 4.97567 11.925 4H15.7693V2.5H9.23076V9.0385H10.7308V4.94425C11.8346 5.77492 12.6939 6.80117 13.3088 8.023C13.9234 9.24483 14.2308 10.5468 14.2308 11.9288C14.2308 13.6353 13.7808 15.201 12.8808 16.626C11.9808 18.051 10.7641 19.1333 9.23076 19.873V21.5095Z" fill="#D9D9D9"/>
</g>
</svg>
