<svg width="24" height="14" viewBox="0 0 24 14" fill="none" xmlns="http://www.w3.org/2000/svg">
<path d="M22 14C21.4705 13.9978 20.9634 13.7856 20.59 13.41L12 4.83001L3.41004 13.41C3.02744 13.7377 2.53529 13.9089 2.03194 13.8894C1.52859 13.87 1.05111 13.6613 0.694918 13.3051C0.338729 12.9489 0.130065 12.4715 0.110622 11.9681C0.0911801 11.4648 0.262392 10.9726 0.590045 10.59L10.59 0.590009C10.9648 0.217507 11.4717 0.00842285 12 0.00842285C12.5284 0.00842285 13.0353 0.217507 13.41 0.590009L23.41 10.59C23.6881 10.8697 23.8772 11.2253 23.9537 11.6121C24.0302 11.999 23.9906 12.3998 23.8399 12.7643C23.6892 13.1287 23.4341 13.4404 23.1068 13.6603C22.7794 13.8802 22.3944 13.9984 22 14Z" fill="white"/>
</svg>
