<svg width="9" height="9" viewBox="0 0 9 9" fill="none" xmlns="http://www.w3.org/2000/svg">
<g clip-path="url(#clip0_425_32)">
<path d="M4.5 0.75C3.75832 0.75 3.0333 0.969934 2.41661 1.38199C1.79993 1.79404 1.31928 2.37971 1.03545 3.06494C0.751625 3.75016 0.677362 4.50416 0.822057 5.23159C0.966751 5.95902 1.3239 6.6272 1.84835 7.15165C2.3728 7.6761 3.04098 8.03325 3.76841 8.17795C4.49584 8.32264 5.24984 8.24838 5.93506 7.96455C6.62029 7.68072 7.20596 7.20007 7.61801 6.58339C8.03007 5.9667 8.25 5.24168 8.25 4.5C8.24886 3.50579 7.85341 2.55262 7.1504 1.84961C6.44738 1.14659 5.49421 0.751137 4.5 0.75ZM4.5 7.5C3.90666 7.5 3.32664 7.32405 2.83329 6.99441C2.33994 6.66476 1.95543 6.19623 1.72836 5.64805C1.5013 5.09987 1.44189 4.49667 1.55765 3.91473C1.6734 3.33279 1.95912 2.79824 2.37868 2.37868C2.79824 1.95912 3.33279 1.6734 3.91473 1.55764C4.49667 1.44189 5.09987 1.5013 5.64805 1.72836C6.19623 1.95542 6.66477 2.33994 6.99441 2.83329C7.32405 3.32664 7.5 3.90666 7.5 4.5C7.49909 5.29537 7.18273 6.0579 6.62032 6.62031C6.0579 7.18273 5.29537 7.49909 4.5 7.5ZM4.875 4.40587V2.625C4.875 2.52554 4.83549 2.43016 4.76517 2.35984C4.69484 2.28951 4.59946 2.25 4.5 2.25C4.40055 2.25 4.30516 2.28951 4.23484 2.35984C4.16451 2.43016 4.125 2.52554 4.125 2.625V4.5C4.12505 4.56176 4.14027 4.62256 4.16931 4.67706L4.73181 5.72662C4.77877 5.81433 4.85865 5.87979 4.95387 5.9086C5.04909 5.93741 5.15186 5.92721 5.23957 5.88025C5.32727 5.83329 5.39273 5.75341 5.42154 5.65819C5.45035 5.56297 5.44015 5.4602 5.39319 5.3725L4.875 4.40587Z" fill="black"/>
</g>
<defs>
<clipPath id="clip0_425_32">
<rect width="9" height="9" fill="white"/>
</clipPath>
</defs>
</svg>
