<svg width="1048" height="1019" viewBox="0 0 1048 1019" fill="none" xmlns="http://www.w3.org/2000/svg">
<g filter="url(#filter0_d_431_35)">
<path d="M758 0C667 0 581.205 44.0458 524 115.618C466.793 44.0458 381 0 290 0C128.795 0 4 132.124 4 302.799C4 511.994 180.795 679.927 448.59 938.662L524 1010.25L599.41 938.662C867.203 679.925 1044 511.992 1044 302.799C1044 132.124 919.205 0 758 0ZM556.09 866.229L545.542 876.418L524 896.868L502.46 876.421L491.925 866.242C365.88 744.481 257.023 639.32 185.06 545.293C115.168 453.968 84 379.181 84 302.799C84 242.644 105.055 187.222 143.287 146.747C181.392 106.405 233.495 84.1875 290 84.1875C355.335 84.1875 419.925 116.197 462.775 169.809L524 246.409L585.223 169.809C628.075 116.197 692.662 84.1875 758 84.1875C814.508 84.1875 866.608 106.405 904.715 146.744C942.945 187.222 964 242.642 964 302.799C964 379.181 932.833 453.965 862.945 545.288C790.985 639.315 682.132 744.467 556.09 866.229Z" fill="#161616"/>
<path d="M523.609 115.931L524 116.419L599.41 938.662L599.066 938.299L599.065 938.3C599.064 938.301 599.063 938.301 599.063 938.302L524 1009.56L448.937 938.302C448.937 938.301 448.936 938.301 448.935 938.3C445.337 934.823 441.755 931.363 438.19 927.92C309.081 803.197 201.826 699.587 126.267 601.847C48.6287 501.417 4.5 407.241 4.5 302.799C4.5 132.373 129.098 0.5 290 0.5C380.837 0.5 466.49 44.468 523.609 115.931ZM545.887 876.781L545.89 876.778L556.437 866.588L556.504 866.525C682.508 744.8 791.367 639.638 863.342 545.592C933.264 454.224 964.5 379.334 964.5 302.799C964.5 242.525 943.404 186.98 905.079 146.401L904.715 146.744L905.078 146.401C866.875 105.96 814.642 83.6875 758 83.6875C692.502 83.6875 627.774 115.773 584.832 169.497L524 245.608L463.166 169.497C420.226 115.773 355.496 83.6875 290 83.6875C233.36 83.6875 181.125 105.96 142.924 146.403C104.596 186.98 83.5 242.528 83.5 302.799C83.5 379.334 114.736 454.227 184.663 545.597C256.653 639.66 365.543 744.85 491.578 866.602L502.113 876.78L502.116 876.783L523.656 897.231L524 897.557L524.344 897.231L545.887 876.781Z" stroke="black"/>
</g>
<defs>
<filter id="filter0_d_431_35" x="0" y="0" width="1048" height="1018.25" filterUnits="userSpaceOnUse" color-interpolation-filters="sRGB">
<feFlood flood-opacity="0" result="BackgroundImageFix"/>
<feColorMatrix in="SourceAlpha" type="matrix" values="0 0 0 0 0 0 0 0 0 0 0 0 0 0 0 0 0 0 127 0" result="hardAlpha"/>
<feOffset dy="4"/>
<feGaussianBlur stdDeviation="2"/>
<feComposite in2="hardAlpha" operator="out"/>
<feColorMatrix type="matrix" values="0 0 0 0 0 0 0 0 0 0 0 0 0 0 0 0 0 0 0.25 0"/>
<feBlend mode="normal" in2="BackgroundImageFix" result="effect1_dropShadow_431_35"/>
<feBlend mode="normal" in="SourceGraphic" in2="effect1_dropShadow_431_35" result="shape"/>
</filter>
</defs>
</svg>
