<svg width="9" height="6" viewBox="0 0 9 6" fill="none" xmlns="http://www.w3.org/2000/svg">
<path d="M8.71875 5.39571H8.30237V4.98116C8.30091 3.95089 7.93737 2.95921 7.28449 2.20457C6.63162 1.44992 5.73757 0.98797 4.78125 0.911154V0.60431H4.99466C5.06925 0.60431 5.14079 0.572476 5.19353 0.515811C5.24628 0.459146 5.27591 0.382291 5.27591 0.302155C5.27591 0.222018 5.24628 0.145164 5.19353 0.0884992C5.14079 0.0318342 5.06925 0 4.99466 0H4.00534C3.93075 0 3.85921 0.0318342 3.80647 0.0884992C3.75372 0.145164 3.72409 0.222018 3.72409 0.302155C3.72409 0.382291 3.75372 0.459146 3.80647 0.515811C3.85921 0.572476 3.93075 0.60431 4.00534 0.60431H4.21875V0.911154C3.26243 0.98797 2.36839 1.44992 1.71551 2.20456C1.06264 2.9592 0.699097 3.95087 0.697629 4.98113V5.39569H0.28125C0.206658 5.39569 0.135121 5.42752 0.0823763 5.48419C0.0296317 5.54085 0 5.61771 0 5.69785C0 5.77798 0.0296317 5.85484 0.0823763 5.9115C0.135121 5.96817 0.206658 6 0.28125 6H8.71875C8.79334 6 8.86488 5.96817 8.91762 5.9115C8.97037 5.85484 9 5.77798 9 5.69785C9 5.61771 8.97037 5.54085 8.91762 5.48419C8.86488 5.42752 8.79334 5.39571 8.71875 5.39571ZM1.26013 4.98116C1.26013 4.05802 1.60147 3.1727 2.20907 2.51994C2.81666 1.86719 3.64073 1.50047 4.5 1.50047C5.35927 1.50047 6.18334 1.86719 6.79093 2.51994C7.39853 3.1727 7.73987 4.05802 7.73987 4.98116V5.39571H1.26013V4.98116Z" fill="black"/>
</svg>
