<svg width="23" height="22" viewBox="0 0 23 22" fill="none" xmlns="http://www.w3.org/2000/svg">
<path d="M8.03953 7.30202C7.99312 6.37899 8.33078 5.47594 8.97867 4.79031C9.62657 4.10467 10.532 3.69224 11.497 3.64319C12.462 3.69224 13.3674 4.10467 14.0153 4.79031C14.6632 5.47594 15.0008 6.37899 14.9544 7.30202C14.9992 8.22388 14.6608 9.12525 14.013 9.8093C13.3652 10.4934 12.4607 10.9045 11.497 10.953C10.5333 10.9045 9.62875 10.4934 8.98096 9.8093C8.33317 9.12525 7.99472 8.22388 8.03953 7.30202ZM23 11C23.0035 13.1837 22.3213 15.3181 21.0419 17.1268C21.0084 17.182 20.97 17.2345 20.9272 17.2835C19.8701 18.7391 18.4602 19.9283 16.818 20.7497C15.1759 21.571 13.3502 22 11.497 22C9.64377 22 7.8181 21.571 6.17593 20.7497C4.53376 19.9283 3.12391 18.7391 2.06682 17.2835C2.02399 17.2345 1.98562 17.182 1.95212 17.1268C0.950526 15.7001 0.312482 14.0689 0.0891593 12.3638C-0.134164 10.6588 0.0634491 8.92744 0.666149 7.30862C1.26885 5.68981 2.25986 4.22857 3.55971 3.04212C4.85956 1.85567 6.43207 0.977007 8.15113 0.476611C9.87018 -0.0237838 11.6879 -0.131989 13.4586 0.160673C15.2293 0.453335 16.9036 1.13872 18.3473 2.16186C19.791 3.185 20.9639 4.51742 21.7718 6.05227C22.5798 7.58711 23.0005 9.28166 23 11ZM1.22294 11C1.21986 12.6693 1.66262 14.3116 2.50924 15.7714C4.28713 13.5385 7.69543 12.1439 11.497 12.1439C15.2985 12.1439 18.7068 13.5385 20.4847 15.7714C21.2461 14.4596 21.6833 12.9986 21.7627 11.5003C21.8422 10.002 21.5619 8.50613 20.9433 7.12743C20.3247 5.74874 19.3842 4.52379 18.1939 3.54647C17.0036 2.56916 15.5951 1.86543 14.0764 1.48922C12.5577 1.11302 10.969 1.07433 9.43225 1.37611C7.89547 1.6779 6.45134 2.31215 5.21056 3.23025C3.96978 4.14835 2.96529 5.32593 2.27409 6.67272C1.58288 8.01952 1.22331 9.49977 1.22294 11Z" fill="black"/>
</svg>
