<svg width="24" height="24" viewBox="0 0 24 24" fill="none" xmlns="http://www.w3.org/2000/svg">
<mask id="mask0_2_97" style="mask-type:alpha" maskUnits="userSpaceOnUse" x="0" y="0" width="24" height="24">
<rect width="24" height="24" fill="#D9D9D9"/>
</mask>
<g mask="url(#mask0_2_97)">
<path d="M7.6155 20C7.168 20 6.78683 19.8427 6.472 19.528C6.15733 19.2132 6 18.832 6 18.3845V6H5V5H9V4.23075H15V5H19V6H18V18.3845C18 18.8448 17.8458 19.2292 17.5375 19.5375C17.2292 19.8458 16.8448 20 16.3845 20H7.6155ZM17 6H7V18.3845C7 18.564 7.05767 18.7115 7.173 18.827C7.2885 18.9423 7.436 19 7.6155 19H16.3845C16.5385 19 16.6796 18.9359 16.8077 18.8078C16.9359 18.6796 17 18.5385 17 18.3845V6ZM9.80775 17H10.8078V8H9.80775V17ZM13.1923 17H14.1923V8H13.1923V17Z" fill="#1C1B1F"/>
</g>
</svg>
